<svg xmlns="http://www.w3.org/2000/svg" width="64" height="64" viewBox="0 0 64 64" fill="none">
  <circle cx="32" cy="32" r="30" fill="white" stroke="#2563eb" stroke-width="4"/>
  <path d="M32 2C15.4 2 2 15.4 2 32C2 48.6 15.4 62 32 62C48.6 62 62 48.6 62 32C62 15.4 48.6 2 32 2ZM13.5 48.7L11.6 41.3L19.2 38.6L24.6 45.3L22.3 53.1L13.5 48.7ZM53.7 41.2L46.1 43.9L40.7 37.2L43 29.4L51.9 33.8L53.7 41.2ZM52.5 22.3L48.1 30.2L40.4 27.3L38.3 19.7L44.9 14.2L52.5 22.3ZM22.8 11.7L30.4 9.1L35.8 15.8L33.5 23.6L24.6 19.2L22.8 11.7ZM10.2 30.5L14.6 22.6L22.3 25.5L24.4 33.1L17.8 38.6L10.2 30.5Z" fill="#2563eb"/>
</svg> 